<mxfile host="app.diagrams.net" agent="Mozilla/5.0 (Windows NT 10.0; Win64; x64) AppleWebKit/537.36 (KHTML, like Gecko) Chrome/135.0.0.0 Safari/537.36" version="26.2.12">
  <diagram name="Trang-1" id="Dtzy6w7fO55JW8tQdBYL">
    <mxGraphModel dx="1044" dy="1811" grid="1" gridSize="10" guides="1" tooltips="1" connect="1" arrows="1" fold="1" page="1" pageScale="1" pageWidth="827" pageHeight="1169" math="0" shadow="0">
      <root>
        <mxCell id="0" />
        <mxCell id="1" parent="0" />
        <mxCell id="dPGzQLBmfjCO8Y-wlS8--2" value="Student" style="rounded=0;whiteSpace=wrap;html=1;" vertex="1" parent="1">
          <mxGeometry x="230" y="130" width="120" height="60" as="geometry" />
        </mxCell>
        <mxCell id="dPGzQLBmfjCO8Y-wlS8--3" value="Admin" style="rounded=0;whiteSpace=wrap;html=1;" vertex="1" parent="1">
          <mxGeometry x="230" y="340" width="120" height="60" as="geometry" />
        </mxCell>
        <mxCell id="dPGzQLBmfjCO8Y-wlS8--4" value="Course" style="rounded=0;whiteSpace=wrap;html=1;" vertex="1" parent="1">
          <mxGeometry x="530" y="340" width="120" height="60" as="geometry" />
        </mxCell>
        <mxCell id="dPGzQLBmfjCO8Y-wlS8--5" value="" style="rounded=0;whiteSpace=wrap;html=1;" vertex="1" parent="1">
          <mxGeometry x="530" y="130" width="120" height="60" as="geometry" />
        </mxCell>
        <mxCell id="dPGzQLBmfjCO8Y-wlS8--6" value="Enrollment" style="rounded=0;whiteSpace=wrap;html=1;" vertex="1" parent="1">
          <mxGeometry x="540" y="140" width="100" height="40" as="geometry" />
        </mxCell>
        <mxCell id="dPGzQLBmfjCO8Y-wlS8--7" value="1" style="endArrow=none;html=1;rounded=0;entryX=0;entryY=0.5;entryDx=0;entryDy=0;" edge="1" parent="1" source="dPGzQLBmfjCO8Y-wlS8--2" target="dPGzQLBmfjCO8Y-wlS8--8">
          <mxGeometry width="50" height="50" relative="1" as="geometry">
            <mxPoint x="390" y="270" as="sourcePoint" />
            <mxPoint x="440" y="220" as="targetPoint" />
          </mxGeometry>
        </mxCell>
        <mxCell id="dPGzQLBmfjCO8Y-wlS8--8" value="Có" style="rhombus;whiteSpace=wrap;html=1;" vertex="1" parent="1">
          <mxGeometry x="400" y="120" width="80" height="80" as="geometry" />
        </mxCell>
        <mxCell id="dPGzQLBmfjCO8Y-wlS8--9" value="N" style="endArrow=classic;html=1;rounded=0;" edge="1" parent="1" source="dPGzQLBmfjCO8Y-wlS8--8" target="dPGzQLBmfjCO8Y-wlS8--5">
          <mxGeometry width="50" height="50" relative="1" as="geometry">
            <mxPoint x="420" y="280" as="sourcePoint" />
            <mxPoint x="470" y="230" as="targetPoint" />
          </mxGeometry>
        </mxCell>
        <mxCell id="dPGzQLBmfjCO8Y-wlS8--10" value="1" style="endArrow=none;html=1;rounded=0;" edge="1" target="dPGzQLBmfjCO8Y-wlS8--11" parent="1" source="dPGzQLBmfjCO8Y-wlS8--4">
          <mxGeometry width="50" height="50" relative="1" as="geometry">
            <mxPoint x="370" y="290" as="sourcePoint" />
            <mxPoint x="460" y="350" as="targetPoint" />
          </mxGeometry>
        </mxCell>
        <mxCell id="dPGzQLBmfjCO8Y-wlS8--11" value="Có" style="rhombus;whiteSpace=wrap;html=1;" vertex="1" parent="1">
          <mxGeometry x="550" y="230" width="80" height="80" as="geometry" />
        </mxCell>
        <mxCell id="dPGzQLBmfjCO8Y-wlS8--12" value="N" style="endArrow=classic;html=1;rounded=0;" edge="1" source="dPGzQLBmfjCO8Y-wlS8--11" parent="1" target="dPGzQLBmfjCO8Y-wlS8--5">
          <mxGeometry width="50" height="50" relative="1" as="geometry">
            <mxPoint x="440" y="410" as="sourcePoint" />
            <mxPoint x="550" y="290" as="targetPoint" />
          </mxGeometry>
        </mxCell>
        <mxCell id="dPGzQLBmfjCO8Y-wlS8--13" value="" style="endArrow=none;html=1;rounded=0;" edge="1" parent="1" source="dPGzQLBmfjCO8Y-wlS8--2" target="dPGzQLBmfjCO8Y-wlS8--14">
          <mxGeometry width="50" height="50" relative="1" as="geometry">
            <mxPoint x="210" y="90" as="sourcePoint" />
            <mxPoint x="260" y="40" as="targetPoint" />
          </mxGeometry>
        </mxCell>
        <mxCell id="dPGzQLBmfjCO8Y-wlS8--14" value="&lt;b&gt;&lt;u&gt;s_id&lt;/u&gt;&lt;/b&gt;" style="ellipse;whiteSpace=wrap;html=1;" vertex="1" parent="1">
          <mxGeometry x="359" y="20" width="91" height="50" as="geometry" />
        </mxCell>
        <mxCell id="dPGzQLBmfjCO8Y-wlS8--15" value="" style="endArrow=none;html=1;rounded=0;" edge="1" parent="1" source="dPGzQLBmfjCO8Y-wlS8--2" target="dPGzQLBmfjCO8Y-wlS8--23">
          <mxGeometry width="50" height="50" relative="1" as="geometry">
            <mxPoint x="150" y="160" as="sourcePoint" />
            <mxPoint x="300.97754710045797" y="39.94711165095646" as="targetPoint" />
          </mxGeometry>
        </mxCell>
        <mxCell id="dPGzQLBmfjCO8Y-wlS8--17" value="s_email" style="ellipse;whiteSpace=wrap;html=1;" vertex="1" parent="1">
          <mxGeometry x="170" y="-10" width="90" height="50" as="geometry" />
        </mxCell>
        <mxCell id="dPGzQLBmfjCO8Y-wlS8--18" value="" style="endArrow=none;html=1;rounded=0;" edge="1" parent="1" source="dPGzQLBmfjCO8Y-wlS8--2" target="dPGzQLBmfjCO8Y-wlS8--17">
          <mxGeometry width="50" height="50" relative="1" as="geometry">
            <mxPoint x="50" y="290" as="sourcePoint" />
            <mxPoint x="100" y="240" as="targetPoint" />
          </mxGeometry>
        </mxCell>
        <mxCell id="dPGzQLBmfjCO8Y-wlS8--19" value="s_username" style="ellipse;whiteSpace=wrap;html=1;" vertex="1" parent="1">
          <mxGeometry x="100" y="30" width="90" height="50" as="geometry" />
        </mxCell>
        <mxCell id="dPGzQLBmfjCO8Y-wlS8--20" value="" style="endArrow=none;html=1;rounded=0;" edge="1" parent="1" source="dPGzQLBmfjCO8Y-wlS8--19" target="dPGzQLBmfjCO8Y-wlS8--2">
          <mxGeometry width="50" height="50" relative="1" as="geometry">
            <mxPoint x="180" y="280" as="sourcePoint" />
            <mxPoint x="230" y="230" as="targetPoint" />
          </mxGeometry>
        </mxCell>
        <mxCell id="dPGzQLBmfjCO8Y-wlS8--21" value="s_password" style="ellipse;whiteSpace=wrap;html=1;" vertex="1" parent="1">
          <mxGeometry x="60" y="80" width="90" height="50" as="geometry" />
        </mxCell>
        <mxCell id="dPGzQLBmfjCO8Y-wlS8--22" value="" style="endArrow=none;html=1;rounded=0;" edge="1" parent="1" source="dPGzQLBmfjCO8Y-wlS8--21" target="dPGzQLBmfjCO8Y-wlS8--2">
          <mxGeometry width="50" height="50" relative="1" as="geometry">
            <mxPoint x="190" y="270" as="sourcePoint" />
            <mxPoint x="240" y="220" as="targetPoint" />
          </mxGeometry>
        </mxCell>
        <mxCell id="dPGzQLBmfjCO8Y-wlS8--23" value="s_name" style="ellipse;whiteSpace=wrap;html=1;" vertex="1" parent="1">
          <mxGeometry x="268" width="91" height="50" as="geometry" />
        </mxCell>
        <mxCell id="dPGzQLBmfjCO8Y-wlS8--24" value="s_dob" style="ellipse;whiteSpace=wrap;html=1;" vertex="1" parent="1">
          <mxGeometry x="30" y="135" width="90" height="50" as="geometry" />
        </mxCell>
        <mxCell id="dPGzQLBmfjCO8Y-wlS8--25" value="" style="endArrow=none;html=1;rounded=0;" edge="1" parent="1" source="dPGzQLBmfjCO8Y-wlS8--24" target="dPGzQLBmfjCO8Y-wlS8--2">
          <mxGeometry width="50" height="50" relative="1" as="geometry">
            <mxPoint x="155" y="127" as="sourcePoint" />
            <mxPoint x="240" y="152" as="targetPoint" />
          </mxGeometry>
        </mxCell>
        <mxCell id="dPGzQLBmfjCO8Y-wlS8--26" value="s_phone" style="ellipse;whiteSpace=wrap;html=1;" vertex="1" parent="1">
          <mxGeometry x="40" y="200" width="90" height="50" as="geometry" />
        </mxCell>
        <mxCell id="dPGzQLBmfjCO8Y-wlS8--27" value="" style="endArrow=none;html=1;rounded=0;" edge="1" parent="1" source="dPGzQLBmfjCO8Y-wlS8--26" target="dPGzQLBmfjCO8Y-wlS8--2">
          <mxGeometry width="50" height="50" relative="1" as="geometry">
            <mxPoint x="170" y="260" as="sourcePoint" />
            <mxPoint x="220" y="210" as="targetPoint" />
          </mxGeometry>
        </mxCell>
        <mxCell id="dPGzQLBmfjCO8Y-wlS8--28" value="s_sex" style="ellipse;whiteSpace=wrap;html=1;" vertex="1" parent="1">
          <mxGeometry x="60" y="260" width="90" height="50" as="geometry" />
        </mxCell>
        <mxCell id="dPGzQLBmfjCO8Y-wlS8--29" value="" style="endArrow=none;html=1;rounded=0;" edge="1" parent="1" source="dPGzQLBmfjCO8Y-wlS8--28" target="dPGzQLBmfjCO8Y-wlS8--2">
          <mxGeometry width="50" height="50" relative="1" as="geometry">
            <mxPoint x="180" y="280" as="sourcePoint" />
            <mxPoint x="230" y="230" as="targetPoint" />
          </mxGeometry>
        </mxCell>
        <mxCell id="dPGzQLBmfjCO8Y-wlS8--30" value="s_status" style="ellipse;whiteSpace=wrap;html=1;" vertex="1" parent="1">
          <mxGeometry x="160" y="260" width="90" height="50" as="geometry" />
        </mxCell>
        <mxCell id="dPGzQLBmfjCO8Y-wlS8--31" value="" style="endArrow=none;html=1;rounded=0;" edge="1" parent="1" source="dPGzQLBmfjCO8Y-wlS8--30" target="dPGzQLBmfjCO8Y-wlS8--2">
          <mxGeometry width="50" height="50" relative="1" as="geometry">
            <mxPoint x="250" y="270" as="sourcePoint" />
            <mxPoint x="300" y="220" as="targetPoint" />
          </mxGeometry>
        </mxCell>
        <mxCell id="dPGzQLBmfjCO8Y-wlS8--32" value="s_created_at" style="ellipse;whiteSpace=wrap;html=1;" vertex="1" parent="1">
          <mxGeometry x="260" y="260" width="90" height="50" as="geometry" />
        </mxCell>
        <mxCell id="dPGzQLBmfjCO8Y-wlS8--33" value="" style="endArrow=none;html=1;rounded=0;" edge="1" parent="1" source="dPGzQLBmfjCO8Y-wlS8--32" target="dPGzQLBmfjCO8Y-wlS8--2">
          <mxGeometry width="50" height="50" relative="1" as="geometry">
            <mxPoint x="270" y="270" as="sourcePoint" />
            <mxPoint x="320" y="220" as="targetPoint" />
          </mxGeometry>
        </mxCell>
        <mxCell id="dPGzQLBmfjCO8Y-wlS8--34" value="a_username" style="ellipse;whiteSpace=wrap;html=1;" vertex="1" parent="1">
          <mxGeometry x="100" y="360" width="90" height="50" as="geometry" />
        </mxCell>
        <mxCell id="dPGzQLBmfjCO8Y-wlS8--35" value="a_password" style="ellipse;whiteSpace=wrap;html=1;" vertex="1" parent="1">
          <mxGeometry x="120" y="430" width="90" height="50" as="geometry" />
        </mxCell>
        <mxCell id="dPGzQLBmfjCO8Y-wlS8--36" value="&lt;b&gt;&lt;u&gt;a_id&lt;/u&gt;&lt;/b&gt;" style="ellipse;whiteSpace=wrap;html=1;" vertex="1" parent="1">
          <mxGeometry x="220" y="460" width="91" height="50" as="geometry" />
        </mxCell>
        <mxCell id="dPGzQLBmfjCO8Y-wlS8--38" value="" style="endArrow=none;html=1;rounded=0;" edge="1" parent="1" source="dPGzQLBmfjCO8Y-wlS8--34" target="dPGzQLBmfjCO8Y-wlS8--3">
          <mxGeometry width="50" height="50" relative="1" as="geometry">
            <mxPoint x="70" y="510" as="sourcePoint" />
            <mxPoint x="120" y="460" as="targetPoint" />
          </mxGeometry>
        </mxCell>
        <mxCell id="dPGzQLBmfjCO8Y-wlS8--39" value="" style="endArrow=none;html=1;rounded=0;" edge="1" parent="1" source="dPGzQLBmfjCO8Y-wlS8--35" target="dPGzQLBmfjCO8Y-wlS8--3">
          <mxGeometry width="50" height="50" relative="1" as="geometry">
            <mxPoint x="199" y="391" as="sourcePoint" />
            <mxPoint x="240" y="386" as="targetPoint" />
          </mxGeometry>
        </mxCell>
        <mxCell id="dPGzQLBmfjCO8Y-wlS8--40" value="" style="endArrow=none;html=1;rounded=0;" edge="1" parent="1" source="dPGzQLBmfjCO8Y-wlS8--36" target="dPGzQLBmfjCO8Y-wlS8--3">
          <mxGeometry width="50" height="50" relative="1" as="geometry">
            <mxPoint x="203" y="446" as="sourcePoint" />
            <mxPoint x="256" y="410" as="targetPoint" />
          </mxGeometry>
        </mxCell>
        <mxCell id="dPGzQLBmfjCO8Y-wlS8--42" value="&lt;b&gt;&lt;u&gt;c_id&lt;/u&gt;&lt;/b&gt;" style="ellipse;whiteSpace=wrap;html=1;" vertex="1" parent="1">
          <mxGeometry x="500" y="450" width="90" height="50" as="geometry" />
        </mxCell>
        <mxCell id="dPGzQLBmfjCO8Y-wlS8--43" value="" style="endArrow=none;html=1;rounded=0;" edge="1" parent="1" source="dPGzQLBmfjCO8Y-wlS8--42" target="dPGzQLBmfjCO8Y-wlS8--4">
          <mxGeometry width="50" height="50" relative="1" as="geometry">
            <mxPoint x="500" y="460" as="sourcePoint" />
            <mxPoint x="550" y="410" as="targetPoint" />
          </mxGeometry>
        </mxCell>
        <mxCell id="dPGzQLBmfjCO8Y-wlS8--44" value="c_name" style="ellipse;whiteSpace=wrap;html=1;" vertex="1" parent="1">
          <mxGeometry x="610" y="450" width="90" height="50" as="geometry" />
        </mxCell>
        <mxCell id="dPGzQLBmfjCO8Y-wlS8--45" value="" style="endArrow=none;html=1;rounded=0;" edge="1" parent="1" source="dPGzQLBmfjCO8Y-wlS8--44" target="dPGzQLBmfjCO8Y-wlS8--4">
          <mxGeometry width="50" height="50" relative="1" as="geometry">
            <mxPoint x="565" y="461" as="sourcePoint" />
            <mxPoint x="587" y="410" as="targetPoint" />
          </mxGeometry>
        </mxCell>
        <mxCell id="dPGzQLBmfjCO8Y-wlS8--46" value="c_duration" style="ellipse;whiteSpace=wrap;html=1;" vertex="1" parent="1">
          <mxGeometry x="690" y="410" width="90" height="50" as="geometry" />
        </mxCell>
        <mxCell id="dPGzQLBmfjCO8Y-wlS8--47" value="" style="endArrow=none;html=1;rounded=0;" edge="1" parent="1" source="dPGzQLBmfjCO8Y-wlS8--46" target="dPGzQLBmfjCO8Y-wlS8--4">
          <mxGeometry width="50" height="50" relative="1" as="geometry">
            <mxPoint x="590" y="480" as="sourcePoint" />
            <mxPoint x="640" y="430" as="targetPoint" />
          </mxGeometry>
        </mxCell>
        <mxCell id="dPGzQLBmfjCO8Y-wlS8--48" value="c_instructor" style="ellipse;whiteSpace=wrap;html=1;" vertex="1" parent="1">
          <mxGeometry x="700" y="350" width="90" height="50" as="geometry" />
        </mxCell>
        <mxCell id="dPGzQLBmfjCO8Y-wlS8--49" value="" style="endArrow=none;html=1;rounded=0;" edge="1" parent="1" source="dPGzQLBmfjCO8Y-wlS8--48" target="dPGzQLBmfjCO8Y-wlS8--4">
          <mxGeometry width="50" height="50" relative="1" as="geometry">
            <mxPoint x="710" y="429" as="sourcePoint" />
            <mxPoint x="660" y="407" as="targetPoint" />
          </mxGeometry>
        </mxCell>
        <mxCell id="dPGzQLBmfjCO8Y-wlS8--50" value="c_created_at" style="ellipse;whiteSpace=wrap;html=1;" vertex="1" parent="1">
          <mxGeometry x="420" y="400" width="90" height="50" as="geometry" />
        </mxCell>
        <mxCell id="dPGzQLBmfjCO8Y-wlS8--51" value="" style="endArrow=none;html=1;rounded=0;" edge="1" parent="1" source="dPGzQLBmfjCO8Y-wlS8--50" target="dPGzQLBmfjCO8Y-wlS8--4">
          <mxGeometry width="50" height="50" relative="1" as="geometry">
            <mxPoint x="390" y="410" as="sourcePoint" />
            <mxPoint x="440" y="360" as="targetPoint" />
          </mxGeometry>
        </mxCell>
        <mxCell id="dPGzQLBmfjCO8Y-wlS8--52" value="&lt;b&gt;&lt;u&gt;e_id&lt;/u&gt;&lt;/b&gt;" style="ellipse;whiteSpace=wrap;html=1;" vertex="1" parent="1">
          <mxGeometry x="500" y="30" width="90" height="50" as="geometry" />
        </mxCell>
        <mxCell id="dPGzQLBmfjCO8Y-wlS8--53" value="" style="endArrow=none;html=1;rounded=0;" edge="1" parent="1" source="dPGzQLBmfjCO8Y-wlS8--5" target="dPGzQLBmfjCO8Y-wlS8--52">
          <mxGeometry width="50" height="50" relative="1" as="geometry">
            <mxPoint x="710" y="384" as="sourcePoint" />
            <mxPoint x="660" y="382" as="targetPoint" />
          </mxGeometry>
        </mxCell>
        <mxCell id="dPGzQLBmfjCO8Y-wlS8--54" value="&lt;b&gt;s_id&lt;/b&gt;" style="ellipse;whiteSpace=wrap;html=1;" vertex="1" parent="1">
          <mxGeometry x="600" y="20" width="90" height="50" as="geometry" />
        </mxCell>
        <mxCell id="dPGzQLBmfjCO8Y-wlS8--55" value="" style="endArrow=none;html=1;rounded=0;" edge="1" parent="1" source="dPGzQLBmfjCO8Y-wlS8--5" target="dPGzQLBmfjCO8Y-wlS8--54">
          <mxGeometry width="50" height="50" relative="1" as="geometry">
            <mxPoint x="587" y="140" as="sourcePoint" />
            <mxPoint x="565" y="89" as="targetPoint" />
          </mxGeometry>
        </mxCell>
        <mxCell id="dPGzQLBmfjCO8Y-wlS8--56" value="&lt;b&gt;c_id&lt;/b&gt;" style="ellipse;whiteSpace=wrap;html=1;" vertex="1" parent="1">
          <mxGeometry x="670" y="70" width="90" height="50" as="geometry" />
        </mxCell>
        <mxCell id="dPGzQLBmfjCO8Y-wlS8--57" value="" style="endArrow=none;html=1;rounded=0;" edge="1" parent="1" source="dPGzQLBmfjCO8Y-wlS8--5" target="dPGzQLBmfjCO8Y-wlS8--56">
          <mxGeometry width="50" height="50" relative="1" as="geometry">
            <mxPoint x="614" y="140" as="sourcePoint" />
            <mxPoint x="643" y="79" as="targetPoint" />
          </mxGeometry>
        </mxCell>
        <mxCell id="dPGzQLBmfjCO8Y-wlS8--58" value="e_registered_at" style="ellipse;whiteSpace=wrap;html=1;" vertex="1" parent="1">
          <mxGeometry x="690" y="130" width="90" height="50" as="geometry" />
        </mxCell>
        <mxCell id="dPGzQLBmfjCO8Y-wlS8--59" value="" style="endArrow=none;html=1;rounded=0;" edge="1" parent="1" source="dPGzQLBmfjCO8Y-wlS8--5" target="dPGzQLBmfjCO8Y-wlS8--58">
          <mxGeometry width="50" height="50" relative="1" as="geometry">
            <mxPoint x="670" y="180" as="sourcePoint" />
            <mxPoint x="692" y="122" as="targetPoint" />
          </mxGeometry>
        </mxCell>
      </root>
    </mxGraphModel>
  </diagram>
</mxfile>
